<svg width="28" height="19" viewBox="0 0 28 19" fill="none" xmlns="http://www.w3.org/2000/svg">
<path d="M1.86945 13.516C1.86945 13.9559 1.98275 14.2891 2.20935 14.5157C2.44261 14.7357 2.76918 14.8456 3.18906 14.8456H16.6351L17.4145 16.7151H3.15907C2.1327 16.7151 1.3496 16.4485 0.809761 15.9153C0.26992 15.3888 0 14.6124 0 13.586V3.12908C0 2.10938 0.259923 1.33294 0.77977 0.799764C1.29962 0.266588 2.02274 0 2.94913 0H20.1441C21.1704 0 21.9535 0.266588 22.4934 0.799764C23.0332 1.33294 23.3031 2.10938 23.3031 3.12908V6.85826L21.4337 6.68802V3.19906C21.4337 2.76585 21.317 2.43595 21.0838 2.20935C20.8572 1.97608 20.5339 1.85945 20.1141 1.85945H3.18906C2.76918 1.85945 2.44261 1.97608 2.20935 2.20935C1.98275 2.43595 1.86945 2.76252 1.86945 3.18906V13.516ZM11.6466 10.9868C11.3133 10.9868 10.9934 10.9234 10.6868 10.7968C10.3869 10.6702 10.0904 10.4736 9.79711 10.207L0.989708 2.26933L2.17936 1.06968L10.8268 8.85739C11.0867 9.09732 11.36 9.21728 11.6466 9.21728C11.9331 9.21728 12.2097 9.09732 12.4763 8.85739L21.1238 1.06968L22.3234 2.26933L13.496 10.207C13.2028 10.4736 12.9062 10.6702 12.6063 10.7968C12.3064 10.9234 11.9865 10.9868 11.6466 10.9868ZM2.33931 15.2955L1.14966 14.0858L7.81769 7.42781L9.02734 8.60746L2.33931 15.2955Z" fill="black"/>
<path d="M17.1398 9.08193L16.2858 10.6167L14.2744 8.60836L15.4841 7.42871L17.1398 9.08193Z" fill="black"/>
<path d="M21.1639 18.8269C20.2909 18.8269 19.473 18.6617 18.7101 18.3312C17.9473 18.0049 17.2762 17.552 16.6969 16.9728C16.1176 16.3975 15.6627 15.7285 15.3323 14.9656C15.006 14.1987 14.8428 13.3787 14.8428 12.5057C14.8428 11.6327 15.006 10.8148 15.3323 10.0519C15.6627 9.28497 16.1176 8.61186 16.6969 8.03257C17.2762 7.45329 17.9473 7.00047 18.7101 6.67411C19.473 6.34775 20.2909 6.18457 21.1639 6.18457C22.0369 6.18457 22.8549 6.34775 23.6177 6.67411C24.3847 7.00047 25.0578 7.45329 25.6371 8.03257C26.2164 8.61186 26.6692 9.28497 26.9955 10.0519C27.326 10.8148 27.4912 11.6327 27.4912 12.5057C27.4912 13.3787 27.326 14.1987 26.9955 14.9656C26.6692 15.7285 26.2164 16.3975 25.6371 16.9728C25.0578 17.552 24.3847 18.0049 23.6177 18.3312C22.8549 18.6617 22.0369 18.8269 21.1639 18.8269ZM21.1639 17.5786C21.8656 17.5786 22.5224 17.446 23.1343 17.1808C23.7462 16.9197 24.2847 16.5566 24.7498 16.0916C25.2189 15.6265 25.584 15.088 25.8451 14.4761C26.1062 13.8642 26.2368 13.2074 26.2368 12.5057C26.2368 11.8041 26.1062 11.1473 25.8451 10.5353C25.584 9.91933 25.2189 9.38084 24.7498 8.91986C24.2847 8.4548 23.7462 8.09173 23.1343 7.83064C22.5224 7.56547 21.8656 7.43289 21.1639 7.43289C20.4663 7.43289 19.8095 7.56547 19.1935 7.83064C18.5816 8.09173 18.0431 8.4548 17.5781 8.91986C17.113 9.38084 16.7479 9.91933 16.4827 10.5353C16.2216 11.1473 16.0911 11.8041 16.0911 12.5057C16.0911 13.2074 16.2216 13.8642 16.4827 14.4761C16.7479 15.088 17.113 15.6265 17.5781 16.0916C18.0431 16.5566 18.5816 16.9197 19.1935 17.1808C19.8095 17.446 20.4663 17.5786 21.1639 17.5786ZM18.5143 12.9096C18.5143 12.8239 18.549 12.7403 18.6183 12.6587L21.9166 8.55271C22.0104 8.44256 22.1104 8.38953 22.2164 8.39361C22.3225 8.39361 22.4041 8.43848 22.4612 8.52823C22.5224 8.6139 22.5285 8.72405 22.4796 8.85867L21.4026 11.7225H23.4158C23.4974 11.7225 23.5667 11.751 23.6239 11.8081C23.685 11.8612 23.7156 11.9285 23.7156 12.0101C23.7156 12.0957 23.6789 12.1794 23.6055 12.261L20.3072 16.367C20.2175 16.4771 20.1175 16.5301 20.0074 16.5261C19.9013 16.522 19.8197 16.4771 19.7626 16.3914C19.7055 16.3058 19.7014 16.1936 19.7504 16.0549L20.8274 13.1911H18.8141C18.7326 13.1911 18.6612 13.1646 18.6 13.1115C18.5429 13.0585 18.5143 12.9912 18.5143 12.9096Z" fill="black"/>
</svg>
