<svg width="28" height="19" viewBox="0 0 28 19" fill="none" xmlns="http://www.w3.org/2000/svg">
<path d="M1.86945 13.516C1.86945 13.9559 1.98275 14.2891 2.20935 14.5157C2.44261 14.7357 2.76918 14.8456 3.18906 14.8456H16.6351L17.4145 16.7151H3.15907C2.1327 16.7151 1.3496 16.4485 0.809761 15.9153C0.26992 15.3888 0 14.6124 0 13.586V3.12908C0 2.10938 0.259923 1.33294 0.77977 0.799764C1.29962 0.266588 2.02274 0 2.94913 0H20.1441C21.1704 0 21.9535 0.266588 22.4934 0.799764C23.0332 1.33294 23.3031 2.10938 23.3031 3.12908V6.85826L21.4337 6.68802V3.19906C21.4337 2.76585 21.317 2.43595 21.0838 2.20935C20.8572 1.97608 20.5339 1.85945 20.1141 1.85945H3.18906C2.76918 1.85945 2.44261 1.97608 2.20935 2.20935C1.98275 2.43595 1.86945 2.76252 1.86945 3.18906V13.516ZM11.6466 10.9868C11.3133 10.9868 10.9934 10.9234 10.6868 10.7968C10.3869 10.6702 10.0904 10.4736 9.79711 10.207L0.989708 2.26933L2.17936 1.06968L10.8268 8.85739C11.0867 9.09732 11.36 9.21728 11.6466 9.21728C11.9331 9.21728 12.2097 9.09732 12.4763 8.85739L21.1238 1.06968L22.3234 2.26933L13.496 10.207C13.2028 10.4736 12.9062 10.6702 12.6063 10.7968C12.3064 10.9234 11.9865 10.9868 11.6466 10.9868ZM2.33931 15.2955L1.14966 14.0858L7.81769 7.42781L9.02734 8.60746L2.33931 15.2955Z" fill="black"/>
<path d="M17.1417 9.08144L16.2877 10.6162L14.2764 8.60787L15.486 7.42822L17.1417 9.08144Z" fill="black"/>
<path d="M21.4964 18.6823C20.6467 18.6823 19.8511 18.5219 19.1096 18.2012C18.3724 17.8846 17.7205 17.4431 17.154 16.8766C16.5916 16.3143 16.1501 15.6645 15.8294 14.9272C15.5128 14.1857 15.3545 13.3901 15.3545 12.5404C15.3545 11.6906 15.5128 10.895 15.8294 10.1536C16.1501 9.41213 16.5916 8.76024 17.154 8.19791C17.7205 7.63557 18.3724 7.19612 19.1096 6.87955C19.8511 6.55881 20.6467 6.39844 21.4964 6.39844C22.3462 6.39844 23.1418 6.55881 23.8832 6.87955C24.6247 7.19612 25.2766 7.63557 25.8389 8.19791C26.4012 8.76024 26.8407 9.41213 27.1573 10.1536C27.478 10.895 27.6384 11.6906 27.6384 12.5404C27.6384 13.3901 27.478 14.1857 27.1573 14.9272C26.8407 15.6645 26.4012 16.3143 25.8389 16.8766C25.2766 17.4431 24.6247 17.8846 23.8832 18.2012C23.1418 18.5219 22.3462 18.6823 21.4964 18.6823ZM21.4964 17.3889C22.1671 17.3889 22.794 17.2619 23.3771 17.0078C23.9645 16.7579 24.481 16.4122 24.9267 15.9706C25.3724 15.5249 25.7202 15.0105 25.9701 14.4273C26.22 13.84 26.345 13.211 26.345 12.5404C26.345 11.8697 26.22 11.2428 25.9701 10.6597C25.7202 10.0724 25.3724 9.55792 24.9267 9.11639C24.481 8.67068 23.9645 8.32287 23.3771 8.07294C22.794 7.81885 22.1671 7.69181 21.4964 7.69181C20.8258 7.69181 20.1968 7.81885 19.6095 8.07294C19.0263 8.32287 18.5119 8.67068 18.0662 9.11639C17.6205 9.55792 17.2727 10.0724 17.0228 10.6597C16.7728 11.2428 16.6479 11.8697 16.6479 12.5404C16.6479 13.211 16.7728 13.84 17.0228 14.4273C17.2727 15.0105 17.6205 15.5249 18.0662 15.9706C18.5119 16.4122 19.0263 16.7579 19.6095 17.0078C20.1968 17.2619 20.8258 17.3889 21.4964 17.3889ZM19.0534 13.1027C18.9076 13.1027 18.7785 13.0465 18.666 12.934C18.5535 12.8215 18.4973 12.6882 18.4973 12.5341C18.4973 12.3758 18.5535 12.2425 18.666 12.1342C18.7785 12.0218 18.9076 11.9655 19.0534 11.9655H22.1837L23.2959 12.0218C23.4375 12.0301 23.5583 12.0822 23.6583 12.178C23.7583 12.2738 23.8082 12.3925 23.8082 12.5341C23.8082 12.6758 23.7583 12.7945 23.6583 12.8903C23.5583 12.9861 23.4375 13.0381 23.2959 13.0465L22.1837 13.1027H19.0534ZM22.0525 15.0521C21.9109 15.0521 21.7943 15.0042 21.7026 14.9084C21.611 14.8085 21.5652 14.6877 21.5652 14.546C21.5652 14.3961 21.6214 14.269 21.7339 14.1649L22.5836 13.3714L23.3584 12.7153V12.3529L22.5836 11.6969L21.7339 10.9034C21.6214 10.7992 21.5652 10.6722 21.5652 10.5222C21.5652 10.3889 21.611 10.2723 21.7026 10.1723C21.7943 10.0682 21.9109 10.0161 22.0525 10.0161C22.1275 10.0161 22.1921 10.0307 22.2462 10.0599C22.3045 10.089 22.3587 10.1286 22.4087 10.1786L24.2581 12.0968C24.3289 12.1676 24.3789 12.2405 24.4081 12.3154C24.4372 12.3863 24.4518 12.4592 24.4518 12.5341C24.4518 12.6091 24.4372 12.682 24.4081 12.7528C24.3789 12.8236 24.3289 12.8965 24.2581 12.9715L22.4087 14.8897C22.3587 14.9397 22.3045 14.9792 22.2462 15.0084C22.1921 15.0376 22.1275 15.0521 22.0525 15.0521Z" fill="black"/>
</svg>
