<svg width="29" height="24" viewBox="0 0 29 24" fill="none" xmlns="http://www.w3.org/2000/svg">
<path d="M8.8115 6.90774C8.63034 6.90774 8.47937 6.84735 8.3586 6.72658C8.24453 6.60581 8.1875 6.45819 8.1875 6.28374C8.1875 6.116 8.24453 5.9751 8.3586 5.86104C8.47937 5.74697 8.63034 5.68994 8.8115 5.68994H15.6654C15.8398 5.68994 15.9841 5.74697 16.0982 5.86104C16.2189 5.9751 16.2793 6.116 16.2793 6.28374C16.2793 6.45819 16.2189 6.60581 16.0982 6.72658C15.9841 6.84735 15.8398 6.90774 15.6654 6.90774H8.8115ZM8.8115 10.1284C8.63034 10.1284 8.47937 10.0713 8.3586 9.95727C8.24453 9.83649 8.1875 9.68553 8.1875 9.50437C8.1875 9.33662 8.24453 9.19572 8.3586 9.08166C8.47937 8.96759 8.63034 8.91056 8.8115 8.91056H15.6654C15.8398 8.91056 15.9841 8.96759 16.0982 9.08166C16.2189 9.19572 16.2793 9.33662 16.2793 9.50437C16.2793 9.68553 16.2189 9.83649 16.0982 9.95727C15.9841 10.0713 15.8398 10.1284 15.6654 10.1284H8.8115ZM8.8115 13.349C8.63034 13.349 8.47937 13.292 8.3586 13.1779C8.24453 13.0638 8.1875 12.9229 8.1875 12.7552C8.1875 12.5807 8.24453 12.4365 8.3586 12.3224C8.47937 12.2016 8.63034 12.1412 8.8115 12.1412H12.1529C12.3273 12.1412 12.475 12.2016 12.5957 12.3224C12.7165 12.4365 12.7769 12.5807 12.7769 12.7552C12.7769 12.9229 12.7165 13.0638 12.5957 13.1779C12.475 13.292 12.3273 13.349 12.1529 13.349H8.8115Z" fill="black"/>
<path d="M18.1204 3.36514C17.899 3.13702 17.5635 3.02295 17.114 3.02295H7.35146C6.90191 3.02295 6.56643 3.13702 6.34501 3.36514C6.13031 3.58656 6.02295 3.91198 6.02295 4.34139V18.3612C6.02295 18.7906 6.13031 19.116 6.34501 19.3374C6.56643 19.5655 6.90191 19.6796 7.35146 19.6796H14.457L14.9599 21.6925H7.15017C6.1236 21.6925 5.34193 21.4241 4.80516 20.8873C4.26839 20.3506 4 19.5622 4 18.5222V4.19043C4 3.14373 4.26839 2.35199 4.80516 1.81522C5.34193 1.27174 6.1236 1 7.15017 1H17.3153C18.3485 1 19.1302 1.27174 19.6603 1.81522C20.197 2.35199 20.4654 3.14373 20.4654 4.19043V12.0206L18.4525 12.0209V4.34139C18.4525 3.91198 18.3418 3.58656 18.1204 3.36514Z" fill="black"/>
<path d="M18.9965 23.37C18.1408 23.37 17.3396 23.2085 16.593 22.8855C15.8505 22.5667 15.1941 22.1221 14.6236 21.5516C14.0573 20.9853 13.6127 20.331 13.2897 19.5885C12.9709 18.8419 12.8115 18.0407 12.8115 17.185C12.8115 16.3293 12.9709 15.5281 13.2897 14.7815C13.6127 14.0348 14.0573 13.3784 14.6236 12.8121C15.1941 12.2458 15.8505 11.8033 16.593 11.4845C17.3396 11.1615 18.1408 11 18.9965 11C19.8522 11 20.6534 11.1615 21.4001 11.4845C22.1467 11.8033 22.8032 12.2458 23.3694 12.8121C23.9357 13.3784 24.3782 14.0348 24.697 14.7815C25.02 15.5281 25.1815 16.3293 25.1815 17.185C25.1815 18.0407 25.02 18.8419 24.697 19.5885C24.3782 20.331 23.9357 20.9853 23.3694 21.5516C22.8032 22.1221 22.1467 22.5667 21.4001 22.8855C20.6534 23.2085 19.8522 23.37 18.9965 23.37ZM18.9965 22.0676C19.6719 22.0676 20.3032 21.9396 20.8904 21.6838C21.4818 21.4321 22.002 21.0839 22.4508 20.6393C22.8996 20.1905 23.2499 19.6724 23.5016 19.0852C23.7532 18.4937 23.8791 17.8603 23.8791 17.185C23.8791 16.5097 23.7532 15.8784 23.5016 15.2911C23.2499 14.6997 22.8996 14.1816 22.4508 13.737C22.002 13.2882 21.4818 12.9379 20.8904 12.6862C20.3032 12.4304 19.6719 12.3024 18.9965 12.3024C18.3212 12.3024 17.6878 12.4304 17.0964 12.6862C16.5091 12.9379 15.9911 13.2882 15.5422 13.737C15.0934 14.1816 14.7432 14.6997 14.4915 15.2911C14.2398 15.8784 14.114 16.5097 14.114 17.185C14.114 17.8603 14.2398 18.4937 14.4915 19.0852C14.7432 19.6724 15.0934 20.1905 15.5422 20.6393C15.9911 21.0839 16.5091 21.4321 17.0964 21.6838C17.6878 21.9396 18.3212 22.0676 18.9965 22.0676ZM17.4739 19.5067C17.3648 19.62 17.2306 19.6766 17.0712 19.6766C16.9118 19.6766 16.7776 19.6221 16.6685 19.513C16.5594 19.404 16.5049 19.2718 16.5049 19.1166C16.5049 18.9656 16.5615 18.8314 16.6748 18.7139L20.5192 14.8821C20.6282 14.7731 20.7646 14.7186 20.9282 14.7186C21.0834 14.7186 21.2155 14.7731 21.3246 14.8821C21.4336 14.987 21.4881 15.117 21.4881 15.2722C21.4881 15.4274 21.4315 15.5575 21.3183 15.6623L17.4739 19.5067ZM20.5192 19.5067L16.6748 15.6623C16.5615 15.5575 16.5049 15.4274 16.5049 15.2722C16.5049 15.117 16.5594 14.987 16.6685 14.8821C16.7776 14.7731 16.9118 14.7186 17.0712 14.7186C17.2306 14.7186 17.3627 14.7731 17.4676 14.8821L21.3183 18.7139C21.4315 18.8314 21.4881 18.9656 21.4881 19.1166C21.4881 19.2718 21.4336 19.404 21.3246 19.513C21.2155 19.6221 21.0834 19.6766 20.9282 19.6766C20.7646 19.6766 20.6282 19.62 20.5192 19.5067Z" fill="black"/>
</svg>
