<svg width="29" height="24" viewBox="0 0 29 24" fill="none" xmlns="http://www.w3.org/2000/svg">
<path d="M8.8115 6.90774C8.63034 6.90774 8.47937 6.84735 8.3586 6.72658C8.24453 6.60581 8.1875 6.45819 8.1875 6.28374C8.1875 6.116 8.24453 5.9751 8.3586 5.86104C8.47937 5.74697 8.63034 5.68994 8.8115 5.68994H15.6654C15.8398 5.68994 15.9841 5.74697 16.0982 5.86104C16.2189 5.9751 16.2793 6.116 16.2793 6.28374C16.2793 6.45819 16.2189 6.60581 16.0982 6.72658C15.9841 6.84735 15.8398 6.90774 15.6654 6.90774H8.8115ZM8.8115 10.1284C8.63034 10.1284 8.47937 10.0713 8.3586 9.95727C8.24453 9.83649 8.1875 9.68553 8.1875 9.50437C8.1875 9.33662 8.24453 9.19572 8.3586 9.08166C8.47937 8.96759 8.63034 8.91056 8.8115 8.91056H15.6654C15.8398 8.91056 15.9841 8.96759 16.0982 9.08166C16.2189 9.19572 16.2793 9.33662 16.2793 9.50437C16.2793 9.68553 16.2189 9.83649 16.0982 9.95727C15.9841 10.0713 15.8398 10.1284 15.6654 10.1284H8.8115ZM8.8115 13.349C8.63034 13.349 8.47937 13.292 8.3586 13.1779C8.24453 13.0638 8.1875 12.9229 8.1875 12.7552C8.1875 12.5807 8.24453 12.4365 8.3586 12.3224C8.47937 12.2016 8.63034 12.1412 8.8115 12.1412H12.1529C12.3273 12.1412 12.475 12.2016 12.5957 12.3224C12.7165 12.4365 12.7769 12.5807 12.7769 12.7552C12.7769 12.9229 12.7165 13.0638 12.5957 13.1779C12.475 13.292 12.3273 13.349 12.1529 13.349H8.8115Z" fill="black"/>
<path d="M18.1204 3.36514C17.899 3.13702 17.5635 3.02295 17.114 3.02295H7.35146C6.90191 3.02295 6.56643 3.13702 6.34501 3.36514C6.13031 3.58656 6.02295 3.91198 6.02295 4.34139V18.3612C6.02295 18.7906 6.13031 19.116 6.34501 19.3374C6.56643 19.5655 6.90191 19.6796 7.35146 19.6796H14.457L15 21.6925H7.15017C6.1236 21.6925 5.34193 21.4241 4.80516 20.8873C4.26839 20.3506 4 19.5622 4 18.5222V4.19043C4 3.14373 4.26839 2.35199 4.80516 1.81522C5.34193 1.27174 6.1236 1 7.15017 1H17.3153C18.3485 1 19.1302 1.27174 19.6603 1.81522C20.197 2.35199 20.4654 3.14373 20.4654 4.19043V12.0206L18.4525 12.0209V4.34139C18.4525 3.91198 18.3418 3.58656 18.1204 3.36514Z" fill="black"/>
<path d="M18.9753 23.499C18.1199 23.499 17.3189 23.3376 16.5724 23.0147C15.8302 22.6959 15.1739 22.2514 14.6036 21.6811C14.0375 21.115 13.593 20.4608 13.2701 19.7186C12.9513 18.9721 12.792 18.1711 12.792 17.3157C12.792 16.4602 12.9513 15.6592 13.2701 14.9128C13.593 14.1663 14.0375 13.51 14.6036 12.9439C15.1739 12.3778 15.8302 11.9354 16.5724 11.6167C17.3189 11.2938 18.1199 11.1323 18.9753 11.1323C19.8308 11.1323 20.6318 11.2938 21.3782 11.6167C22.1247 11.9354 22.781 12.3778 23.3471 12.9439C23.9132 13.51 24.3556 14.1663 24.6743 14.9128C24.9972 15.6592 25.1587 16.4602 25.1587 17.3157C25.1587 18.1711 24.9972 18.9721 24.6743 19.7186C24.3556 20.4608 23.9132 21.115 23.3471 21.6811C22.781 22.2514 22.1247 22.6959 21.3782 23.0147C20.6318 23.3376 19.8308 23.499 18.9753 23.499ZM18.9753 22.1969C19.6505 22.1969 20.2816 22.069 20.8687 21.8132C21.46 21.5616 21.98 21.2135 22.4287 20.769C22.8774 20.3203 23.2276 19.8024 23.4792 19.2153C23.7308 18.624 23.8566 17.9908 23.8566 17.3157C23.8566 16.6405 23.7308 16.0094 23.4792 15.4223C23.2276 14.831 22.8774 14.3131 22.4287 13.8686C21.98 13.4199 21.46 13.0697 20.8687 12.8181C20.2816 12.5623 19.6505 12.4344 18.9753 12.4344C18.3002 12.4344 17.667 12.5623 17.0757 12.8181C16.4886 13.0697 15.9707 13.4199 15.522 13.8686C15.0733 14.3131 14.7231 14.831 14.4715 15.4223C14.2199 16.0094 14.0941 16.6405 14.0941 17.3157C14.0941 17.9908 14.2199 18.624 14.4715 19.2153C14.7231 19.8024 15.0733 20.3203 15.522 20.769C15.9707 21.2135 16.4886 21.5616 17.0757 21.8132C17.667 22.069 18.3002 22.1969 18.9753 22.1969ZM18.34 20.1463C18.2226 20.1463 18.1178 20.1211 18.0255 20.0708C17.9374 20.0205 17.8515 19.9429 17.7676 19.8381L16.3837 18.1586C16.2747 18.0202 16.2202 17.8818 16.2202 17.7434C16.2202 17.5882 16.2726 17.4582 16.3774 17.3534C16.4823 17.2444 16.6123 17.1899 16.7674 17.1899C16.8597 17.1899 16.9436 17.2087 17.0191 17.2465C17.0945 17.2842 17.1679 17.3492 17.2392 17.4415L18.3149 18.8002L20.6171 15.1141C20.7471 14.9044 20.9085 14.7996 21.1014 14.7996C21.2482 14.7996 21.3782 14.8478 21.4914 14.9442C21.6089 15.0407 21.6676 15.1644 21.6676 15.3154C21.6676 15.3866 21.6529 15.4579 21.6235 15.5292C21.5942 15.5963 21.5585 15.6634 21.5166 15.7305L18.881 19.8318C18.7468 20.0415 18.5665 20.1463 18.34 20.1463Z" fill="black"/>
</svg>
