<svg width="29" height="24" viewBox="0 0 29 24" fill="none" xmlns="http://www.w3.org/2000/svg">
<path d="M1.93436 18.9798L10.2492 11.4955C10.5261 11.2375 10.8061 11.0519 11.0892 10.9387C11.3787 10.8191 11.6807 10.7593 11.9953 10.7593C12.3162 10.7593 12.6182 10.8191 12.9013 10.9387C13.1845 11.0519 13.4645 11.2375 13.7413 11.4955L16.6127 14.0742L15.7057 15.3996L12.7786 12.7602C12.527 12.54 12.2658 12.4299 11.9953 12.4299C11.7247 12.4299 11.4668 12.54 11.2214 12.7602L3.05749 20.1218L1.93436 18.9798ZM20.867 6.75761L21.9996 7.89017L15.695 14.2042L14.553 13.0716L20.867 6.75761ZM3.14243 6.76705L9.44702 13.0716L8.30502 14.2042L2.00043 7.89961L3.14243 6.76705ZM2.76491 17.734C2.76491 18.143 2.87187 18.4545 3.0858 18.6684C3.30602 18.8823 3.61433 18.9893 4.01072 18.9893H16.6127L17.4454 20.7542H3.98241C3.01344 20.7542 2.27413 20.5025 1.76448 19.9991C1.25483 19.5021 1 18.7691 1 17.8001V8.88117C1 8.40927 1.04404 8.00028 1.13213 7.65422C1.22651 7.30187 1.37752 6.99042 1.58516 6.71986C1.79279 6.44301 2.06964 6.19133 2.4157 5.96482L9.99442 0.745603C10.7243 0.248534 11.3881 0 11.9858 0C12.5836 0 13.2474 0.248534 13.9773 0.745603L21.5937 5.96482C21.9335 6.19133 22.2072 6.44301 22.4148 6.71986C22.6225 6.99042 22.7703 7.30187 22.8584 7.65422C22.9528 8.00028 23 8.40927 23 8.88117V11.5857L21.2351 11.1866V8.71128C21.2351 8.48477 21.2131 8.28972 21.169 8.12612C21.125 7.96253 21.0526 7.81782 20.952 7.69198C20.8576 7.56614 20.7317 7.44973 20.5744 7.34277L12.873 2.11411C12.5458 1.8876 12.2501 1.77435 11.9858 1.77435C11.7216 1.77435 11.429 1.8876 11.1081 2.11411L3.42557 7.34277C3.26827 7.44973 3.13928 7.56614 3.03861 7.69198C2.94423 7.81782 2.87502 7.96253 2.83097 8.12612C2.78693 8.28972 2.76491 8.48477 2.76491 8.71128V17.734Z" fill="black"/>
<path d="M18.1482 17.8358C18.0056 17.8358 17.8861 17.7876 17.7896 17.6911C17.6931 17.5946 17.6449 17.4772 17.6449 17.3387C17.6449 17.2003 17.6931 17.0829 17.7896 16.9864C17.8861 16.8899 18.0056 16.8417 18.1482 16.8417H20.6084V13.4881C20.6084 13.3496 20.6566 13.2322 20.7531 13.1357C20.8496 13.0392 20.967 12.991 21.1055 12.991C21.2481 12.991 21.3655 13.0392 21.4578 13.1357C21.5543 13.2322 21.6025 13.3496 21.6025 13.4881V17.3387C21.6025 17.4772 21.5543 17.5946 21.4578 17.6911C21.3655 17.7876 21.2481 17.8358 21.1055 17.8358H18.1482ZM21.1118 23.2406C20.2561 23.2406 19.4549 23.0791 18.7082 22.7561C17.9658 22.4373 17.3093 21.9927 16.7388 21.4222C16.1726 20.856 15.7279 20.2016 15.4049 19.4591C15.0862 18.7125 14.9268 17.9113 14.9268 17.0556C14.9268 16.1999 15.0862 15.3987 15.4049 14.6521C15.7279 13.9054 16.1726 13.249 16.7388 12.6827C17.3093 12.1164 17.9658 11.6739 18.7082 11.3551C19.4549 11.0321 20.2561 10.8706 21.1118 10.8706C21.9675 10.8706 22.7686 11.0321 23.5153 11.3551C24.2619 11.6739 24.9184 12.1164 25.4847 12.6827C26.0509 13.249 26.4935 13.9054 26.8123 14.6521C27.1353 15.3987 27.2968 16.1999 27.2968 17.0556C27.2968 17.9113 27.1353 18.7125 26.8123 19.4591C26.4935 20.2016 26.0509 20.856 25.4847 21.4222C24.9184 21.9927 24.2619 22.4373 23.5153 22.7561C22.7686 23.0791 21.9675 23.2406 21.1118 23.2406ZM21.1118 21.9382C21.7871 21.9382 22.4184 21.8102 23.0056 21.5544C23.5971 21.3027 24.1172 20.9545 24.566 20.5099C25.0149 20.0611 25.3651 19.543 25.6168 18.9558C25.8685 18.3643 25.9943 17.7309 25.9943 17.0556C25.9943 16.3803 25.8685 15.749 25.6168 15.1617C25.3651 14.5703 25.0149 14.0522 24.566 13.6076C24.1172 13.1588 23.5971 12.8085 23.0056 12.5569C22.4184 12.301 21.7871 12.173 21.1118 12.173C20.4364 12.173 19.803 12.301 19.2116 12.5569C18.6243 12.8085 18.1063 13.1588 17.6575 13.6076C17.2086 14.0522 16.8584 14.5703 16.6067 15.1617C16.355 15.749 16.2292 16.3803 16.2292 17.0556C16.2292 17.7309 16.355 18.3643 16.6067 18.9558C16.8584 19.543 17.2086 20.0611 17.6575 20.5099C18.1063 20.9545 18.6243 21.3027 19.2116 21.5544C19.803 21.8102 20.4364 21.9382 21.1118 21.9382Z" fill="black"/>
</svg>
