<svg width="28" height="19" viewBox="0 0 28 19" fill="none" xmlns="http://www.w3.org/2000/svg">
<path d="M1.86945 13.516C1.86945 13.9559 1.98275 14.2891 2.20935 14.5157C2.44261 14.7357 2.76918 14.8456 3.18906 14.8456H16.6351L17.4145 16.7151H3.15907C2.1327 16.7151 1.3496 16.4485 0.809761 15.9153C0.26992 15.3888 0 14.6124 0 13.586V3.12908C0 2.10938 0.259923 1.33294 0.77977 0.799764C1.29962 0.266588 2.02274 0 2.94913 0H20.1441C21.1704 0 21.9535 0.266588 22.4934 0.799764C23.0332 1.33294 23.3031 2.10938 23.3031 3.12908V6.85826L21.4337 6.68802V3.19906C21.4337 2.76585 21.317 2.43595 21.0838 2.20935C20.8572 1.97608 20.5339 1.85945 20.1141 1.85945H3.18906C2.76918 1.85945 2.44261 1.97608 2.20935 2.20935C1.98275 2.43595 1.86945 2.76252 1.86945 3.18906V13.516ZM11.6466 10.9868C11.3133 10.9868 10.9934 10.9234 10.6868 10.7968C10.3869 10.6702 10.0904 10.4736 9.79711 10.207L0.989708 2.26933L2.17936 1.06968L10.8268 8.85739C11.0867 9.09732 11.36 9.21728 11.6466 9.21728C11.9331 9.21728 12.2097 9.09732 12.4763 8.85739L21.1238 1.06968L22.3234 2.26933L13.496 10.207C13.2028 10.4736 12.9062 10.6702 12.6063 10.7968C12.3064 10.9234 11.9865 10.9868 11.6466 10.9868ZM2.33931 15.2955L1.14966 14.0858L7.81769 7.42781L9.02734 8.60746L2.33931 15.2955Z" fill="black"/>
<path d="M17.1398 9.08095L16.2858 10.6157L14.2744 8.60739L15.4841 7.42773L17.1398 9.08095Z" fill="black"/>
<path d="M21.1689 18.8358C20.2955 18.8358 19.4767 18.67 18.7124 18.3384C17.9482 18.0109 17.275 17.558 16.6927 16.9798C16.1145 16.4016 15.6616 15.7304 15.3341 14.9661C15.0065 14.2019 14.8428 13.3831 14.8428 12.5097C14.8428 11.6363 15.0065 10.8175 15.3341 10.0532C15.6616 9.28902 16.1145 8.6178 16.6927 8.03957C17.275 7.4573 17.9482 7.00241 18.7124 6.67488C19.4767 6.34736 20.2955 6.18359 21.1689 6.18359C22.0423 6.18359 22.8611 6.34736 23.6253 6.67488C24.3895 7.00241 25.0608 7.4573 25.639 8.03957C26.2172 8.6178 26.6701 9.28902 26.9976 10.0532C27.3292 10.8175 27.495 11.6363 27.495 12.5097C27.495 13.3831 27.3292 14.2019 26.9976 14.9661C26.6701 15.7304 26.2172 16.4016 25.639 16.9798C25.0608 17.558 24.3895 18.0109 23.6253 18.3384C22.8611 18.67 22.0423 18.8358 21.1689 18.8358ZM21.1689 17.4468C21.8522 17.4468 22.4911 17.3195 23.0855 17.0647C23.6839 16.81 24.2076 16.4562 24.6564 16.0033C25.1093 15.5464 25.4631 15.0207 25.7178 14.4263C25.9766 13.8279 26.106 13.189 26.106 12.5097C26.106 11.8263 25.9766 11.1875 25.7178 10.5931C25.4631 9.99462 25.1093 9.46896 24.6564 9.01608C24.2076 8.56321 23.6839 8.2094 23.0855 7.95466C22.4911 7.69992 21.8522 7.57254 21.1689 7.57254C20.4855 7.57254 19.8446 7.69992 19.2462 7.95466C18.6518 8.2094 18.1281 8.56321 17.6753 9.01608C17.2224 9.46896 16.8686 9.99462 16.6138 10.5931C16.3591 11.1875 16.2317 11.8263 16.2317 12.5097C16.2317 13.189 16.3591 13.8279 16.6138 14.4263C16.8686 15.0207 17.2224 15.5464 17.6753 16.0033C18.1281 16.4562 18.6518 16.81 19.2462 17.0647C19.8446 17.3195 20.4855 17.4468 21.1689 17.4468ZM19.3432 15.0996L18.5062 15.4089C18.4132 15.4453 18.3283 15.4271 18.2515 15.3543C18.1787 15.2815 18.1625 15.1946 18.2029 15.0935L18.5365 14.2808L22.3395 10.4778L23.1522 11.2966L19.3432 15.0996ZM23.5161 10.9327L22.7095 10.1139L23.1401 9.68326C23.2493 9.57409 23.3665 9.51748 23.4919 9.51344C23.6172 9.50535 23.7284 9.55185 23.8255 9.65294L23.9771 9.81064C24.0822 9.90768 24.1308 10.0189 24.1227 10.1442C24.1186 10.2696 24.062 10.3868 23.9528 10.496L23.5161 10.9327Z" fill="black"/>
</svg>
