<svg width="28" height="19" viewBox="0 0 28 19" fill="none" xmlns="http://www.w3.org/2000/svg">
<path d="M1.86945 13.516C1.86945 13.9559 1.98275 14.2891 2.20935 14.5157C2.44261 14.7357 2.76918 14.8456 3.18906 14.8456H16.6351L17.4145 16.7151H3.15907C2.1327 16.7151 1.3496 16.4485 0.809761 15.9153C0.26992 15.3888 0 14.6124 0 13.586V3.12908C0 2.10938 0.259923 1.33294 0.77977 0.799764C1.29962 0.266588 2.02274 0 2.94913 0H20.1441C21.1704 0 21.9535 0.266588 22.4934 0.799764C23.0332 1.33294 23.3031 2.10938 23.3031 3.12908V8.03903L21.4337 6.68802V3.19906C21.4337 2.76585 21.317 2.43595 21.0838 2.20935C20.8572 1.97608 20.5339 1.85945 20.1141 1.85945H3.18906C2.76918 1.85945 2.44261 1.97608 2.20935 2.20935C1.98275 2.43595 1.86945 2.76252 1.86945 3.18906V13.516ZM11.6466 10.9868C11.3133 10.9868 10.9934 10.9234 10.6868 10.7968C10.3869 10.6702 10.0904 10.4736 9.79711 10.207L0.989708 2.26933L2.17936 1.06968L10.8268 8.85739C11.0867 9.09732 11.36 9.21728 11.6466 9.21728C11.9331 9.21728 12.2097 9.09732 12.4763 8.85739L21.1238 1.06968L22.3234 2.26933L13.496 10.207C13.2028 10.4736 12.9062 10.6702 12.6063 10.7968C12.3064 10.9234 11.9865 10.9868 11.6466 10.9868ZM2.33931 15.2955L1.14966 14.0858L7.81769 7.42781L9.02734 8.60746L2.33931 15.2955Z" fill="black"/>
<path d="M17.1398 9.08095L16.2858 10.6157L14.2744 8.60739L15.4841 7.42773L17.1398 9.08095Z" fill="black"/>
<path d="M17.8502 17.3596C17.3324 17.3596 16.9469 17.2329 16.6935 16.9796C16.4438 16.7298 16.3189 16.3461 16.3189 15.8284V14.6661C16.3189 14.567 16.2859 14.4844 16.2198 14.4183L15.3936 13.5866C15.0264 13.223 14.8428 12.865 14.8428 12.5125C14.8428 12.1563 15.0264 11.7946 15.3936 11.4274L16.2198 10.6012C16.2859 10.5314 16.3189 10.4488 16.3189 10.3533V9.18557C16.3189 8.66414 16.4438 8.27857 16.6935 8.02887C16.9469 7.77917 17.3324 7.65431 17.8502 7.65431H19.0124C19.1116 7.65431 19.1942 7.62127 19.2603 7.55517L20.092 6.73446C20.4592 6.36725 20.8191 6.18365 21.1716 6.18365C21.5241 6.17998 21.884 6.36174 22.2512 6.72895L23.0774 7.55517C23.1472 7.62127 23.2298 7.65431 23.3253 7.65431H24.493C25.0108 7.65431 25.3945 7.781 25.6442 8.03437C25.8976 8.28775 26.0242 8.67148 26.0242 9.18557V10.3533C26.0242 10.4488 26.0573 10.5314 26.1234 10.6012L26.9496 11.4274C27.3131 11.7946 27.4949 12.1563 27.4949 12.5125C27.4986 12.865 27.3168 13.223 26.9496 13.5866L26.1234 14.4183C26.0573 14.4844 26.0242 14.567 26.0242 14.6661V15.8284C26.0242 16.3498 25.8976 16.7354 25.6442 16.9851C25.3945 17.2348 25.0108 17.3596 24.493 17.3596H23.3253C23.2298 17.3596 23.1472 17.3945 23.0774 17.4643L22.2512 18.2905C21.884 18.654 21.5241 18.8358 21.1716 18.8358C20.8191 18.8395 20.4592 18.6577 20.092 18.2905L19.2603 17.4643C19.1942 17.3945 19.1116 17.3596 19.0124 17.3596H17.8502ZM17.9769 16.2635L19.3815 16.269C19.5467 16.269 19.6826 16.3241 19.7891 16.4342L20.775 17.4257C20.9476 17.5983 21.078 17.6846 21.1661 17.6846C21.2579 17.6846 21.3901 17.5983 21.5627 17.4257L22.5596 16.4342C22.6661 16.3241 22.7983 16.269 22.9562 16.269L24.3663 16.2635C24.6087 16.2635 24.7629 16.2304 24.829 16.1643C24.8951 16.0983 24.9281 15.9459 24.9281 15.7072V14.2971C24.9281 14.1392 24.9832 14.007 25.0934 13.9005L26.0903 12.9091C26.2593 12.7365 26.3437 12.6043 26.3437 12.5125C26.3437 12.4207 26.2593 12.2885 26.0903 12.1159L25.0934 11.1244C24.9832 11.0143 24.9281 10.8802 24.9281 10.7223V9.31777C24.9281 9.07908 24.8951 8.92669 24.829 8.86059C24.7629 8.79082 24.6087 8.75594 24.3663 8.75594L22.9562 8.75043C22.7983 8.75043 22.6661 8.69718 22.5596 8.59069L21.5627 7.59373C21.3901 7.42481 21.2579 7.34035 21.1661 7.34035C21.078 7.34035 20.9476 7.42481 20.775 7.59373L19.7891 8.59069C19.6826 8.69718 19.5467 8.75043 19.3815 8.75043L17.9769 8.75594C17.7309 8.75594 17.5748 8.78899 17.5087 8.85508C17.4463 8.92118 17.4151 9.07541 17.4151 9.31777V10.7223C17.4114 10.8802 17.3563 11.0143 17.2498 11.1244L16.2584 12.1159C16.0858 12.2885 15.9995 12.4207 15.9995 12.5125C15.9995 12.6043 16.0858 12.7365 16.2584 12.9091L17.2498 13.9005C17.36 14.007 17.4151 14.1392 17.4151 14.2971V15.7072C17.4151 15.9459 17.4481 16.0983 17.5142 16.1643C17.5803 16.2304 17.7345 16.2635 17.9769 16.2635ZM20.5822 15.1233C20.4757 15.1233 20.3784 15.0994 20.2903 15.0517C20.2058 15.004 20.1251 14.9342 20.0479 14.8424L18.7756 13.3001C18.6727 13.1716 18.6213 13.0412 18.6213 12.9091C18.6213 12.7622 18.6727 12.6373 18.7756 12.5345C18.8784 12.4317 19.0014 12.3803 19.1446 12.3803C19.2327 12.3803 19.3117 12.3986 19.3815 12.4354C19.4512 12.4721 19.521 12.5327 19.5908 12.6171L20.5712 13.8509L22.6588 10.4855C22.7836 10.2872 22.9397 10.188 23.127 10.188C23.2665 10.188 23.3914 10.2339 23.5015 10.3257C23.6117 10.4176 23.6668 10.5369 23.6668 10.6838C23.6668 10.7462 23.6521 10.8105 23.6227 10.8766C23.597 10.9427 23.564 11.0069 23.5236 11.0693L21.1055 14.8369C20.977 15.0278 20.8026 15.1233 20.5822 15.1233Z" fill="black"/>
</svg>
