<svg width="29" height="24" viewBox="0 0 29 24" fill="none" xmlns="http://www.w3.org/2000/svg">
<path d="M8.62302 6.90774C8.44186 6.90774 8.29089 6.84735 8.17012 6.72658C8.05606 6.60581 7.99902 6.45819 7.99902 6.28374C7.99902 6.116 8.05606 5.9751 8.17012 5.86104C8.29089 5.74697 8.44186 5.68994 8.62302 5.68994H15.4769C15.6514 5.68994 15.7956 5.74697 15.9097 5.86104C16.0304 5.9751 16.0908 6.116 16.0908 6.28374C16.0908 6.45819 16.0304 6.60581 15.9097 6.72658C15.7956 6.84735 15.6514 6.90774 15.4769 6.90774H8.62302ZM8.62302 10.1284C8.44186 10.1284 8.29089 10.0713 8.17012 9.95727C8.05606 9.83649 7.99902 9.68553 7.99902 9.50437C7.99902 9.33662 8.05606 9.19572 8.17012 9.08166C8.29089 8.96759 8.44186 8.91056 8.62302 8.91056H15.4769C15.6514 8.91056 15.7956 8.96759 15.9097 9.08166C16.0304 9.19572 16.0908 9.33662 16.0908 9.50437C16.0908 9.68553 16.0304 9.83649 15.9097 9.95727C15.7956 10.0713 15.6514 10.1284 15.4769 10.1284H8.62302ZM8.62302 13.349C8.44186 13.349 8.29089 13.292 8.17012 13.1779C8.05606 13.0638 7.99902 12.9229 7.99902 12.7552C7.99902 12.5807 8.05606 12.4365 8.17012 12.3224C8.29089 12.2016 8.44186 12.1412 8.62302 12.1412H11.9644C12.1389 12.1412 12.2865 12.2016 12.4072 12.3224C12.528 12.4365 12.5884 12.5807 12.5884 12.7552C12.5884 12.9229 12.528 13.0638 12.4072 13.1779C12.2865 13.292 12.1389 13.349 11.9644 13.349H8.62302Z" fill="black"/>
<path d="M17.9319 3.36514C17.7105 3.13702 17.375 3.02295 16.9255 3.02295H7.16298C6.71344 3.02295 6.37796 3.13702 6.15654 3.36514C5.94183 3.58656 5.83448 3.91198 5.83448 4.34139V18.3612C5.83448 18.7906 5.94183 19.116 6.15654 19.3374C6.37796 19.5655 6.71344 19.6796 7.16298 19.6796H14.2685L14.8115 21.6925H6.96169C5.93512 21.6925 5.15345 21.4241 4.61668 20.8873C4.07991 20.3506 3.81152 19.5622 3.81152 18.5222V4.19043C3.81152 3.14373 4.07991 2.35199 4.61668 1.81522C5.15345 1.27174 5.93512 1 6.96169 1H17.1268C18.1601 1 18.9417 1.27174 19.4718 1.81522C20.0086 2.35199 20.277 3.14373 20.277 4.19043V12.0206L18.2641 12.0209V4.34139C18.2641 3.91198 18.1534 3.58656 17.9319 3.36514Z" fill="black"/>
<path d="M15.8445 17.9652C15.7019 17.9652 15.5824 17.917 15.4859 17.8205C15.3894 17.724 15.3412 17.6066 15.3412 17.4681C15.3412 17.3297 15.3894 17.2123 15.4859 17.1158C15.5824 17.0193 15.7019 16.9711 15.8445 16.9711H18.3047V13.6175C18.3047 13.479 18.3529 13.3616 18.4494 13.2651C18.5459 13.1686 18.6633 13.1204 18.8018 13.1204C18.9444 13.1204 19.0618 13.1686 19.1541 13.2651C19.2506 13.3616 19.2988 13.479 19.2988 13.6175V17.4681C19.2988 17.6066 19.2506 17.724 19.1541 17.8205C19.0618 17.917 18.9444 17.9652 18.8018 17.9652H15.8445ZM18.808 23.37C17.9523 23.37 17.1512 23.2085 16.4045 22.8855C15.6621 22.5667 15.0056 22.1221 14.4351 21.5516C13.8689 20.9853 13.4242 20.331 13.1012 19.5885C12.7824 18.8419 12.623 18.0407 12.623 17.185C12.623 16.3293 12.7824 15.5281 13.1012 14.7815C13.4242 14.0348 13.8689 13.3784 14.4351 12.8121C15.0056 12.2458 15.6621 11.8033 16.4045 11.4845C17.1512 11.1615 17.9523 11 18.808 11C19.6638 11 20.4649 11.1615 21.2116 11.4845C21.9582 11.8033 22.6147 12.2458 23.181 12.8121C23.7472 13.3784 24.1898 14.0348 24.5086 14.7815C24.8316 15.5281 24.993 16.3293 24.993 17.185C24.993 18.0407 24.8316 18.8419 24.5086 19.5885C24.1898 20.331 23.7472 20.9853 23.181 21.5516C22.6147 22.1221 21.9582 22.5667 21.2116 22.8855C20.4649 23.2085 19.6638 23.37 18.808 23.37ZM18.808 22.0676C19.4834 22.0676 20.1147 21.9396 20.7019 21.6838C21.2934 21.4321 21.8135 21.0839 22.2623 20.6393C22.7112 20.1905 23.0614 19.6724 23.3131 19.0852C23.5648 18.4937 23.6906 17.8603 23.6906 17.185C23.6906 16.5097 23.5648 15.8784 23.3131 15.2911C23.0614 14.6997 22.7112 14.1816 22.2623 13.737C21.8135 13.2882 21.2934 12.9379 20.7019 12.6862C20.1147 12.4304 19.4834 12.3024 18.808 12.3024C18.1327 12.3024 17.4993 12.4304 16.9079 12.6862C16.3206 12.9379 15.8026 13.2882 15.3538 13.737C14.9049 14.1816 14.5547 14.6997 14.303 15.2911C14.0513 15.8784 13.9255 16.5097 13.9255 17.185C13.9255 17.8603 14.0513 18.4937 14.303 19.0852C14.5547 19.6724 14.9049 20.1905 15.3538 20.6393C15.8026 21.0839 16.3206 21.4321 16.9079 21.6838C17.4993 21.9396 18.1327 22.0676 18.808 22.0676Z" fill="black"/>
</svg>
