<svg width="29" height="24" viewBox="0 0 29 24" fill="none" xmlns="http://www.w3.org/2000/svg">
<path d="M2.76491 17.7602C2.76491 18.1755 2.87187 18.4901 3.0858 18.704C3.30602 18.9116 3.61433 19.0154 4.01072 19.0154H16.7048L17.4407 20.7804H3.98241C3.01344 20.7804 2.27413 20.5287 1.76448 20.0253C1.25483 19.5282 1 18.7952 1 17.8263V7.9541C1 6.99142 1.24539 6.2584 1.73616 5.75504C2.22694 5.25168 2.90962 5 3.78421 5H20.0176C20.9866 5 21.7259 5.25168 22.2355 5.75504C22.7452 6.2584 23 6.99142 23 7.9541V11.4747L21.2351 11.314V8.02016C21.2351 7.61118 21.125 7.29973 20.9048 7.0858C20.6908 6.86558 20.3857 6.75547 19.9893 6.75547H4.01072C3.61433 6.75547 3.30602 6.86558 3.0858 7.0858C2.87187 7.29973 2.76491 7.60804 2.76491 8.01072V17.7602ZM11.9953 15.3724C11.6807 15.3724 11.3787 15.3126 11.0892 15.193C10.8061 15.0735 10.5261 14.8879 10.2492 14.6362L1.93436 7.14243L3.05749 6.00987L11.2214 13.3621C11.4668 13.5886 11.7247 13.7018 11.9953 13.7018C12.2658 13.7018 12.527 13.5886 12.7786 13.3621L20.9425 6.00987L22.0751 7.14243L13.7413 14.6362C13.4645 14.8879 13.1845 15.0735 12.9013 15.193C12.6182 15.3126 12.3162 15.3724 11.9953 15.3724ZM3.20849 19.4402L2.08537 18.2982L8.38052 12.0124L9.52252 13.1261L3.20849 19.4402Z" fill="black"/>
<path d="M17.1817 13.5735L16.3754 15.0224L14.4766 13.1264L15.6186 12.0127L17.1817 13.5735Z" fill="black"/>
<path d="M21.185 23.37C20.3293 23.37 19.5281 23.2085 18.7815 22.8855C18.039 22.5667 17.3826 22.1221 16.8121 21.5516C16.2458 20.9853 15.8012 20.331 15.4782 19.5885C15.1594 18.8419 15 18.0407 15 17.185C15 16.3293 15.1594 15.5281 15.4782 14.7815C15.8012 14.0348 16.2458 13.3784 16.8121 12.8121C17.3826 12.2458 18.039 11.8033 18.7815 11.4845C19.5281 11.1615 20.3293 11 21.185 11C22.0407 11 22.8419 11.1615 23.5885 11.4845C24.3352 11.8033 24.9916 12.2458 25.5579 12.8121C26.1242 13.3784 26.5667 14.0348 26.8855 14.7815C27.2085 15.5281 27.37 16.3293 27.37 17.185C27.37 18.0407 27.2085 18.8419 26.8855 19.5885C26.5667 20.331 26.1242 20.9853 25.5579 21.5516C24.9916 22.1221 24.3352 22.5667 23.5885 22.8855C22.8419 23.2085 22.0407 23.37 21.185 23.37ZM21.185 22.0676C21.8603 22.0676 22.4916 21.9396 23.0789 21.6838C23.6703 21.4321 24.1905 21.0839 24.6393 20.6393C25.0881 20.1905 25.4384 19.6724 25.69 19.0852C25.9417 18.4937 26.0676 17.8603 26.0676 17.185C26.0676 16.5097 25.9417 15.8784 25.69 15.2911C25.4384 14.6997 25.0881 14.1816 24.6393 13.737C24.1905 13.2882 23.6703 12.9379 23.0789 12.6862C22.4916 12.4304 21.8603 12.3024 21.185 12.3024C20.5097 12.3024 19.8763 12.4304 19.2848 12.6862C18.6976 12.9379 18.1795 13.2882 17.7307 13.737C17.2819 14.1816 16.9316 14.6997 16.68 15.2911C16.4283 15.8784 16.3024 16.5097 16.3024 17.185C16.3024 17.8603 16.4283 18.4937 16.68 19.0852C16.9316 19.6724 17.2819 20.1905 17.7307 20.6393C18.1795 21.0839 18.6976 21.4321 19.2848 21.6838C19.8763 21.9396 20.5097 22.0676 21.185 22.0676ZM19.6623 19.5067C19.5533 19.62 19.4191 19.6766 19.2597 19.6766C19.1003 19.6766 18.966 19.6221 18.857 19.513C18.7479 19.404 18.6934 19.2718 18.6934 19.1166C18.6934 18.9656 18.75 18.8314 18.8633 18.7139L22.7077 14.8821C22.8167 14.7731 22.953 14.7186 23.1166 14.7186C23.2718 14.7186 23.404 14.7731 23.513 14.8821C23.6221 14.987 23.6766 15.117 23.6766 15.2722C23.6766 15.4274 23.62 15.5575 23.5067 15.6623L19.6623 19.5067ZM22.7077 19.5067L18.8633 15.6623C18.75 15.5575 18.6934 15.4274 18.6934 15.2722C18.6934 15.117 18.7479 14.987 18.857 14.8821C18.966 14.7731 19.1003 14.7186 19.2597 14.7186C19.4191 14.7186 19.5512 14.7731 19.6561 14.8821L23.5067 18.7139C23.62 18.8314 23.6766 18.9656 23.6766 19.1166C23.6766 19.2718 23.6221 19.404 23.513 19.513C23.404 19.6221 23.2718 19.6766 23.1166 19.6766C22.953 19.6766 22.8167 19.62 22.7077 19.5067Z" fill="black"/>
</svg>
