<svg width="29" height="24" viewBox="0 0 29 24" fill="none" xmlns="http://www.w3.org/2000/svg">
<path d="M2.76491 17.7602C2.76491 18.1755 2.87187 18.4901 3.0858 18.704C3.30602 18.9116 3.61433 19.0154 4.01072 19.0154H16.7048L17.4407 20.7804H3.98241C3.01344 20.7804 2.27413 20.5287 1.76448 20.0253C1.25483 19.5282 1 18.7952 1 17.8263V7.9541C1 6.99142 1.24539 6.2584 1.73616 5.75504C2.22694 5.25168 2.90962 5 3.78421 5H20.0176C20.9866 5 21.7259 5.25168 22.2355 5.75504C22.7452 6.2584 23 6.99142 23 7.9541V11.4747L21.2351 11.314V8.02016C21.2351 7.61118 21.125 7.29973 20.9048 7.0858C20.6908 6.86558 20.3857 6.75547 19.9893 6.75547H4.01072C3.61433 6.75547 3.30602 6.86558 3.0858 7.0858C2.87187 7.29973 2.76491 7.60804 2.76491 8.01072V17.7602ZM11.9953 15.3724C11.6807 15.3724 11.3787 15.3126 11.0892 15.193C10.8061 15.0735 10.5261 14.8879 10.2492 14.6362L1.93436 7.14243L3.05749 6.00987L11.2214 13.3621C11.4668 13.5886 11.7247 13.7018 11.9953 13.7018C12.2658 13.7018 12.527 13.5886 12.7786 13.3621L20.9425 6.00987L22.0751 7.14243L13.7413 14.6362C13.4645 14.8879 13.1845 15.0735 12.9013 15.193C12.6182 15.3126 12.3162 15.3724 11.9953 15.3724ZM3.20849 19.4402L2.08537 18.2982L8.38052 12.0124L9.52252 13.1261L3.20849 19.4402Z" fill="black"/>
<path d="M17.1817 13.5735L16.3754 15.0224L14.4766 13.1264L15.6186 12.0127L17.1817 13.5735Z" fill="black"/>
<path d="M19.2215 17.9652C19.0789 17.9652 18.9593 17.917 18.8628 17.8205C18.7664 17.724 18.7181 17.6066 18.7181 17.4681C18.7181 17.3297 18.7664 17.2123 18.8628 17.1158C18.9593 17.0193 19.0789 16.9711 19.2215 16.9711H21.6816V13.6175C21.6816 13.479 21.7299 13.3616 21.8264 13.2651C21.9228 13.1686 22.0403 13.1204 22.1787 13.1204C22.3213 13.1204 22.4388 13.1686 22.5311 13.2651C22.6275 13.3616 22.6758 13.479 22.6758 13.6175V17.4681C22.6758 17.6066 22.6275 17.724 22.5311 17.8205C22.4388 17.917 22.3213 17.9652 22.1787 17.9652H19.2215ZM22.185 23.37C21.3293 23.37 20.5281 23.2085 19.7815 22.8855C19.039 22.5667 18.3826 22.1221 17.8121 21.5516C17.2458 20.9853 16.8012 20.331 16.4782 19.5885C16.1594 18.8419 16 18.0407 16 17.185C16 16.3293 16.1594 15.5281 16.4782 14.7815C16.8012 14.0348 17.2458 13.3784 17.8121 12.8121C18.3826 12.2458 19.039 11.8033 19.7815 11.4845C20.5281 11.1615 21.3293 11 22.185 11C23.0407 11 23.8419 11.1615 24.5885 11.4845C25.3352 11.8033 25.9916 12.2458 26.5579 12.8121C27.1242 13.3784 27.5667 14.0348 27.8855 14.7815C28.2085 15.5281 28.37 16.3293 28.37 17.185C28.37 18.0407 28.2085 18.8419 27.8855 19.5885C27.5667 20.331 27.1242 20.9853 26.5579 21.5516C25.9916 22.1221 25.3352 22.5667 24.5885 22.8855C23.8419 23.2085 23.0407 23.37 22.185 23.37ZM22.185 22.0676C22.8603 22.0676 23.4916 21.9396 24.0789 21.6838C24.6703 21.4321 25.1905 21.0839 25.6393 20.6393C26.0881 20.1905 26.4384 19.6724 26.69 19.0852C26.9417 18.4937 27.0676 17.8603 27.0676 17.185C27.0676 16.5097 26.9417 15.8784 26.69 15.2911C26.4384 14.6997 26.0881 14.1816 25.6393 13.737C25.1905 13.2882 24.6703 12.9379 24.0789 12.6862C23.4916 12.4304 22.8603 12.3024 22.185 12.3024C21.5097 12.3024 20.8763 12.4304 20.2848 12.6862C19.6976 12.9379 19.1795 13.2882 18.7307 13.737C18.2819 14.1816 17.9316 14.6997 17.68 15.2911C17.4283 15.8784 17.3024 16.5097 17.3024 17.185C17.3024 17.8603 17.4283 18.4937 17.68 19.0852C17.9316 19.6724 18.2819 20.1905 18.7307 20.6393C19.1795 21.0839 19.6976 21.4321 20.2848 21.6838C20.8763 21.9396 21.5097 22.0676 22.185 22.0676Z" fill="black"/>
</svg>
