<svg width="28" height="19" viewBox="0 0 28 19" fill="none" xmlns="http://www.w3.org/2000/svg">
<path d="M1.86945 13.516C1.86945 13.9559 1.98275 14.2891 2.20935 14.5157C2.44261 14.7357 2.76918 14.8456 3.18906 14.8456H16.6351L17.4145 16.7151H3.15907C2.1327 16.7151 1.3496 16.4485 0.809761 15.9153C0.26992 15.3888 0 14.6124 0 13.586V3.12908C0 2.10938 0.259923 1.33294 0.77977 0.799764C1.29962 0.266588 2.02274 0 2.94913 0H20.1441C21.1704 0 21.9535 0.266588 22.4934 0.799764C23.0332 1.33294 23.3031 2.10938 23.3031 3.12908V6.85826L21.4337 6.68802V3.19906C21.4337 2.76585 21.317 2.43595 21.0838 2.20935C20.8572 1.97608 20.5339 1.85945 20.1141 1.85945H3.18906C2.76918 1.85945 2.44261 1.97608 2.20935 2.20935C1.98275 2.43595 1.86945 2.76252 1.86945 3.18906V13.516ZM11.6466 10.9868C11.3133 10.9868 10.9934 10.9234 10.6868 10.7968C10.3869 10.6702 10.0904 10.4736 9.79711 10.207L0.989708 2.26933L2.17936 1.06968L10.8268 8.85739C11.0867 9.09732 11.36 9.21728 11.6466 9.21728C11.9331 9.21728 12.2097 9.09732 12.4763 8.85739L21.1238 1.06968L22.3234 2.26933L13.496 10.207C13.2028 10.4736 12.9062 10.6702 12.6063 10.7968C12.3064 10.9234 11.9865 10.9868 11.6466 10.9868ZM2.33931 15.2955L1.14966 14.0858L7.81769 7.42781L9.02734 8.60746L2.33931 15.2955Z" fill="black"/>
<path d="M17.1398 9.08095L16.2858 10.6157L14.2744 8.60739L15.4841 7.42773L17.1398 9.08095Z" fill="black"/>
<path d="M20.9847 18.468C20.135 18.468 19.3394 18.3076 18.5979 17.9869C17.8606 17.6703 17.2087 17.2287 16.6422 16.6622C16.0799 16.0999 15.6384 15.4501 15.3176 14.7128C15.0011 13.9714 14.8428 13.1758 14.8428 12.326C14.8428 11.4763 15.0011 10.6807 15.3176 9.93922C15.6384 9.19778 16.0799 8.54589 16.6422 7.98355C17.2087 7.42122 17.8606 6.98176 18.5979 6.66519C19.3394 6.34445 20.135 6.18408 20.9847 6.18408C21.8345 6.18408 22.6301 6.34445 23.3715 6.66519C24.113 6.98176 24.7648 7.42122 25.3272 7.98355C25.8895 8.54589 26.329 9.19778 26.6455 9.93922C26.9663 10.6807 27.1267 11.4763 27.1267 12.326C27.1267 13.1758 26.9663 13.9714 26.6455 14.7128C26.329 15.4501 25.8895 16.0999 25.3272 16.6622C24.7648 17.2287 24.113 17.6703 23.3715 17.9869C22.6301 18.3076 21.8345 18.468 20.9847 18.468ZM20.9847 17.1746C21.6553 17.1746 22.2822 17.0475 22.8654 16.7935C23.4527 16.5435 23.9692 16.1978 24.415 15.7563C24.8607 15.3106 25.2085 14.7961 25.4584 14.213C25.7083 13.6256 25.8333 12.9967 25.8333 12.326C25.8333 11.6554 25.7083 11.0285 25.4584 10.4453C25.2085 9.858 24.8607 9.34357 24.415 8.90203C23.9692 8.45633 23.4527 8.10851 22.8654 7.85859C22.2822 7.6045 21.6553 7.47745 20.9847 7.47745C20.3141 7.47745 19.6851 7.6045 19.0978 7.85859C18.5146 8.10851 18.0002 8.45633 17.5545 8.90203C17.1088 9.34357 16.761 9.858 16.511 10.4453C16.2611 11.0285 16.1361 11.6554 16.1361 12.326C16.1361 12.9967 16.2611 13.6256 16.511 14.213C16.761 14.7961 17.1088 15.3106 17.5545 15.7563C18.0002 16.1978 18.5146 16.5435 19.0978 16.7935C19.6851 17.0475 20.3141 17.1746 20.9847 17.1746ZM20.3536 15.1377C20.237 15.1377 20.1329 15.1127 20.0412 15.0627C19.9538 15.0127 19.8684 14.9357 19.7851 14.8315L18.4105 13.1633C18.3022 13.0258 18.248 12.8884 18.248 12.7509C18.248 12.5968 18.3001 12.4676 18.4042 12.3635C18.5084 12.2552 18.6375 12.2011 18.7916 12.2011C18.8832 12.2011 18.9666 12.2198 19.0415 12.2573C19.1165 12.2948 19.1894 12.3593 19.2602 12.451L20.3287 13.8006L22.6155 10.1392C22.7446 9.93089 22.905 9.82676 23.0966 9.82676C23.2424 9.82676 23.3715 9.87466 23.484 9.97047C23.6006 10.0663 23.6589 10.1892 23.6589 10.3391C23.6589 10.4099 23.6443 10.4807 23.6152 10.5515C23.586 10.6182 23.5506 10.6848 23.509 10.7515L20.891 14.8253C20.7577 15.0336 20.5786 15.1377 20.3536 15.1377Z" fill="black"/>
</svg>
