<svg width="29" height="24" viewBox="0 0 29 24" fill="none" xmlns="http://www.w3.org/2000/svg">
<path d="M1.93436 18.9798L10.2492 11.4955C10.5261 11.2375 10.8061 11.0519 11.0892 10.9387C11.3787 10.8191 11.6807 10.7593 11.9953 10.7593C12.3162 10.7593 12.6182 10.8191 12.9013 10.9387C13.1845 11.0519 13.4645 11.2375 13.7413 11.4955L16.6127 14.0742L15.7057 15.3996L12.7786 12.7602C12.527 12.54 12.2658 12.4299 11.9953 12.4299C11.7247 12.4299 11.4668 12.54 11.2214 12.7602L3.05749 20.1218L1.93436 18.9798ZM20.867 6.75761L21.9996 7.89017L15.695 14.2042L14.553 13.0716L20.867 6.75761ZM3.14243 6.76705L9.44702 13.0716L8.30502 14.2042L2.00043 7.89961L3.14243 6.76705ZM2.76491 17.734C2.76491 18.143 2.87187 18.4545 3.0858 18.6684C3.30602 18.8823 3.61433 18.9893 4.01072 18.9893H16.6127L17.4454 20.7542H3.98241C3.01344 20.7542 2.27413 20.5025 1.76448 19.9991C1.25483 19.5021 1 18.7691 1 17.8001V8.88117C1 8.40927 1.04404 8.00028 1.13213 7.65422C1.22651 7.30187 1.37752 6.99042 1.58516 6.71986C1.79279 6.44301 2.06964 6.19133 2.4157 5.96482L9.99442 0.745603C10.7243 0.248534 11.3881 0 11.9858 0C12.5836 0 13.2474 0.248534 13.9773 0.745603L21.5937 5.96482C21.9335 6.19133 22.2072 6.44301 22.4148 6.71986C22.6225 6.99042 22.7703 7.30187 22.8584 7.65422C22.9528 8.00028 23 8.40927 23 8.88117V11.5857L21.2351 11.1866V8.71128C21.2351 8.48477 21.2131 8.28972 21.169 8.12612C21.125 7.96253 21.0526 7.81782 20.952 7.69198C20.8576 7.56614 20.7317 7.44973 20.5744 7.34277L12.873 2.11411C12.5458 1.8876 12.2501 1.77435 11.9858 1.77435C11.7216 1.77435 11.429 1.8876 11.1081 2.11411L3.42557 7.34277C3.26827 7.44973 3.13928 7.56614 3.03861 7.69198C2.94423 7.81782 2.87502 7.96253 2.83097 8.12612C2.78693 8.28972 2.76491 8.48477 2.76491 8.71128V17.734Z" fill="black"/>
<path d="M21.185 23.37C20.3293 23.37 19.5281 23.2085 18.7815 22.8855C18.039 22.5667 17.3826 22.1221 16.8121 21.5516C16.2458 20.9853 15.8012 20.331 15.4782 19.5885C15.1594 18.8419 15 18.0407 15 17.185C15 16.3293 15.1594 15.5281 15.4782 14.7815C15.8012 14.0348 16.2458 13.3784 16.8121 12.8121C17.3826 12.2458 18.039 11.8033 18.7815 11.4845C19.5281 11.1615 20.3293 11 21.185 11C22.0407 11 22.8419 11.1615 23.5885 11.4845C24.3352 11.8033 24.9916 12.2458 25.5579 12.8121C26.1242 13.3784 26.5667 14.0348 26.8855 14.7815C27.2085 15.5281 27.37 16.3293 27.37 17.185C27.37 18.0407 27.2085 18.8419 26.8855 19.5885C26.5667 20.331 26.1242 20.9853 25.5579 21.5516C24.9916 22.1221 24.3352 22.5667 23.5885 22.8855C22.8419 23.2085 22.0407 23.37 21.185 23.37ZM21.185 22.0676C21.8603 22.0676 22.4916 21.9396 23.0789 21.6838C23.6703 21.4321 24.1905 21.0839 24.6393 20.6393C25.0881 20.1905 25.4384 19.6724 25.69 19.0852C25.9417 18.4937 26.0676 17.8603 26.0676 17.185C26.0676 16.5097 25.9417 15.8784 25.69 15.2911C25.4384 14.6997 25.0881 14.1816 24.6393 13.737C24.1905 13.2882 23.6703 12.9379 23.0789 12.6862C22.4916 12.4304 21.8603 12.3024 21.185 12.3024C20.5097 12.3024 19.8763 12.4304 19.2848 12.6862C18.6976 12.9379 18.1795 13.2882 17.7307 13.737C17.2819 14.1816 16.9316 14.6997 16.68 15.2911C16.4283 15.8784 16.3024 16.5097 16.3024 17.185C16.3024 17.8603 16.4283 18.4937 16.68 19.0852C16.9316 19.6724 17.2819 20.1905 17.7307 20.6393C18.1795 21.0839 18.6976 21.4321 19.2848 21.6838C19.8763 21.9396 20.5097 22.0676 21.185 22.0676ZM20.5495 20.0164C20.4321 20.0164 20.3272 19.9912 20.2349 19.9409C20.1468 19.8905 20.0608 19.8129 19.9769 19.7081L18.5927 18.0281C18.4837 17.8897 18.4291 17.7513 18.4291 17.6129C18.4291 17.4577 18.4816 17.3276 18.5864 17.2228C18.6913 17.1137 18.8213 17.0592 18.9765 17.0592C19.0688 17.0592 19.1527 17.078 19.2282 17.1158C19.3037 17.1535 19.3771 17.2186 19.4484 17.3108L20.5243 18.6699L22.8272 14.9828C22.9572 14.7731 23.1187 14.6682 23.3117 14.6682C23.4585 14.6682 23.5885 14.7165 23.7018 14.8129C23.8192 14.9094 23.878 15.0331 23.878 15.1842C23.878 15.2555 23.8633 15.3268 23.8339 15.3981C23.8046 15.4652 23.7689 15.5323 23.727 15.5994L21.0906 19.7018C20.9564 19.9115 20.776 20.0164 20.5495 20.0164Z" fill="black"/>
</svg>
