<svg width="28" height="19" viewBox="0 0 28 19" fill="none" xmlns="http://www.w3.org/2000/svg">
<path d="M1.86945 13.516C1.86945 13.9559 1.98275 14.2891 2.20935 14.5157C2.44261 14.7356 2.76918 14.8456 3.18906 14.8456H16.6351L17.4145 16.7151H3.15907C2.1327 16.7151 1.3496 16.4485 0.809761 15.9153C0.26992 15.3888 0 14.6124 0 13.586V3.12908C0 2.10938 0.259923 1.33294 0.77977 0.799764C1.29962 0.266588 2.02274 0 2.94913 0H20.1441C21.1704 0 21.9535 0.266588 22.4934 0.799764C23.0332 1.33294 23.3031 2.10938 23.3031 3.12908V6.85825L21.4337 6.68802V3.19906C21.4337 2.76585 21.317 2.43595 21.0838 2.20935C20.8572 1.97608 20.5339 1.85945 20.1141 1.85945H3.18906C2.76918 1.85945 2.44261 1.97608 2.20935 2.20935C1.98275 2.43595 1.86945 2.76252 1.86945 3.18906V13.516ZM11.6466 10.9868C11.3133 10.9868 10.9934 10.9234 10.6868 10.7968C10.3869 10.6702 10.0904 10.4736 9.79711 10.207L0.989708 2.26933L2.17936 1.06968L10.8268 8.85738C11.0867 9.09731 11.36 9.21728 11.6466 9.21728C11.9331 9.21728 12.2097 9.09731 12.4763 8.85738L21.1238 1.06968L22.3234 2.26933L13.496 10.207C13.2028 10.4736 12.9062 10.6702 12.6063 10.7968C12.3064 10.9234 11.9865 10.9868 11.6466 10.9868ZM2.33931 15.2955L1.14966 14.0858L7.81769 7.42781L9.02734 8.60746L2.33931 15.2955Z" fill="black"/>
<path d="M17.1398 9.08095L16.2858 10.6157L14.2744 8.60739L15.4841 7.42773L17.1398 9.08095Z" fill="black"/>
<path d="M21.4964 18.6808C20.6467 18.6808 19.8511 18.5205 19.1096 18.1997C18.3724 17.8832 17.7205 17.4416 17.154 16.8751C16.5916 16.3128 16.1501 15.663 15.8294 14.9257C15.5128 14.1843 15.3545 13.3887 15.3545 12.5389C15.3545 11.6892 15.5128 10.8936 15.8294 10.1521C16.1501 9.41067 16.5916 8.75878 17.154 8.19644C17.7205 7.63411 18.3724 7.19465 19.1096 6.87808C19.8511 6.55734 20.6467 6.39697 21.4964 6.39697C22.3462 6.39697 23.1418 6.55734 23.8832 6.87808C24.6247 7.19465 25.2766 7.63411 25.8389 8.19644C26.4012 8.75878 26.8407 9.41067 27.1573 10.1521C27.478 10.8936 27.6384 11.6892 27.6384 12.5389C27.6384 13.3887 27.478 14.1843 27.1573 14.9257C26.8407 15.663 26.4012 16.3128 25.8389 16.8751C25.2766 17.4416 24.6247 17.8832 23.8832 18.1997C23.1418 18.5205 22.3462 18.6808 21.4964 18.6808ZM21.4964 17.3875C22.1671 17.3875 22.794 17.2604 23.3771 17.0063C23.9645 16.7564 24.481 16.4107 24.9267 15.9691C25.3724 15.5234 25.7202 15.009 25.9701 14.4259C26.22 13.8385 26.345 13.2095 26.345 12.5389C26.345 11.8683 26.22 11.2414 25.9701 10.6582C25.7202 10.0709 25.3724 9.55646 24.9267 9.11492C24.481 8.66922 23.9645 8.3214 23.3771 8.07148C22.794 7.81739 22.1671 7.69034 21.4964 7.69034C20.8258 7.69034 20.1968 7.81739 19.6095 8.07148C19.0263 8.3214 18.5119 8.66922 18.0662 9.11492C17.6205 9.55646 17.2727 10.0709 17.0227 10.6582C16.7728 11.2414 16.6479 11.8683 16.6479 12.5389C16.6479 13.2095 16.7728 13.8385 17.0227 14.4259C17.2727 15.009 17.6205 15.5234 18.0662 15.9691C18.5119 16.4107 19.0263 16.7564 19.6095 17.0063C20.1968 17.2604 20.8258 17.3875 21.4964 17.3875ZM19.9844 14.8445C19.8761 14.9569 19.7428 15.0132 19.5845 15.0132C19.4262 15.0132 19.2929 14.959 19.1846 14.8507C19.0763 14.7424 19.0222 14.6112 19.0222 14.4571C19.0222 14.3071 19.0784 14.1738 19.1909 14.0572L23.0085 10.2521C23.1168 10.1438 23.2522 10.0896 23.4146 10.0896C23.5687 10.0896 23.6999 10.1438 23.8082 10.2521C23.9165 10.3562 23.9707 10.4853 23.9707 10.6395C23.9707 10.7936 23.9145 10.9227 23.802 11.0269L19.9844 14.8445ZM23.0085 14.8445L19.1909 11.0269C19.0784 10.9227 19.0222 10.7936 19.0222 10.6395C19.0222 10.4853 19.0763 10.3562 19.1846 10.2521C19.2929 10.1438 19.4262 10.0896 19.5845 10.0896C19.7428 10.0896 19.874 10.1438 19.9781 10.2521L23.802 14.0572C23.9145 14.1738 23.9707 14.3071 23.9707 14.4571C23.9707 14.6112 23.9165 14.7424 23.8082 14.8507C23.6999 14.959 23.5687 15.0132 23.4146 15.0132C23.2522 15.0132 23.1168 14.9569 23.0085 14.8445Z" fill="black"/>
</svg>
